<svg xmlns="http://www.w3.org/2000/svg" version="1.1" xmlns:xlink="http://www.w3.org/1999/xlink" xmlns:svgjs="http://svgjs.com/svgjs" id="BgenPttrnSvgRootPreview" width="100%" height="100%"><defs><pattern x="0" y="0" width="1" height="1" patternUnits="userSpaceOnUse" id="BgenPttrnLayer1"><g id="PatternRootContent1"><g id="BgenPttrnLayer1background"><rect width="1" height="1" id="BgenPttrnBackground1" class="color_1 fill_color_1" fill="#ffffff"></rect></g></g></pattern><pattern x="0" y="0" width="174" height="304" patternUnits="userSpaceOnUse" id="BgenPttrnLayer2" patternTransform="matrix(0.5,0,0,0.5,0,0)"><g id="PatternRootContent2"><g id="BgenPttrnLayer2Element3"><use xlink:href="#BgenPttrnElement3" x="75.87853240966797" y="-165.81656646728516" transform="translate(174, -76) scale(1) translate(-174, 76) rotate(90, 174, -76)"></use><use xlink:href="#BgenPttrnElement3" x="-98.12146759033203" y="-165.81656646728516" transform="translate(0, -76) scale(1) translate(0, 76) rotate(90, 0, -76)"></use><use xlink:href="#BgenPttrnElement3" x="-11.121467590332031" y="-13.816566467285156" transform="translate(87, 76) scale(1) translate(-87, -76) rotate(90, 87, 76)"></use><use xlink:href="#BgenPttrnElement3" x="-185.12146759033203" y="-13.816566467285156" transform="translate(-87, 76) scale(1) translate(87, -76) rotate(90, -87, 76)"></use><use xlink:href="#BgenPttrnElement3" x="162.87853240966797" y="-13.816566467285156" transform="translate(261, 76) scale(1) translate(-261, -76) rotate(90, 261, 76)"></use><use xlink:href="#BgenPttrnElement3" x="75.87853240966797" y="138.18343353271484" transform="translate(174, 228) scale(1) translate(-174, -228) rotate(90, 174, 228)"></use><use xlink:href="#BgenPttrnElement3" x="-98.12146759033203" y="138.18343353271484" transform="translate(0, 228) scale(1) translate(0, -228) rotate(90, 0, 228)"></use><use xlink:href="#BgenPttrnElement3" x="-11.121467590332031" y="290.18343353271484" transform="translate(87, 380) scale(1) translate(-87, -380) rotate(90, 87, 380)"></use><use xlink:href="#BgenPttrnElement3" x="-11.121467590332031" y="290.18343353271484" transform="translate(87, 380) scale(1) translate(-87, -380) rotate(90, 87, 380)"></use></g></g></pattern><symbol id="BgenPttrnElement3"><g class="color_4 fill_color_4" fill="#5c5c5c"><path d="M115.122,108.91152954101562c-0.11,0,-0.21,0.01,-0.31,0.05L104.122,113.11153411865234L92.122,108.91152954101562L80.852,112.71153259277344c-0.42,0.14,-0.73,0.5,-0.73,0.96L80.122,143.91152954101562c0,0.55,0.45,1,1,1c0.11,0,0.21,-0.01,0.31,-0.05L92.122,140.71153259277344L104.122,144.91152954101562l11.28,-3.79c0.42,-0.15,0.72,-0.51,0.72,-0.97L116.122,109.91152954101562c0,-0.55,-0.45,-1,-1,-1ZM104.122,140.91152954101562l-12,-4.21L92.122,112.91152954101562l12,4.21L104.122,140.91152954101562Z" transform="matrix(1,0,0,1,0,0)"></path><path d="M121.665,179.13397216796875c0.055,-0.095,0.096,-0.187,0.112,-0.293L123.528,167.5076904296875L133.165,159.2153778076172L135.509,147.55526733398438c0.089,-0.434,-0.068,-0.882,-0.466,-1.112L108.854,131.3230743408203c-0.476,-0.275,-1.091,-0.11,-1.366,0.366c-0.055,0.095,-0.096,0.187,-0.112,0.293L105.625,143.3153839111328L95.988,151.60768127441406l-2.358,11.664c-0.08,0.439,0.082,0.879,0.48,1.109L120.299,179.5c0.476,0.275,1.091,0.11,1.366,-0.366ZM99.452,153.60768127441406l9.646,-8.287L129.701,157.2153778076172l-9.646,8.287L99.452,153.60768127441406Z" transform="matrix(1,0,0,1,0,0)"></path><path d="M57.579,149.68910217285156c0.055,0.095,0.114,0.177,0.198,0.243L66.716,157.11538696289062L69.079,169.60768127441406L78.005,177.46780395507812c0.331,0.294,0.798,0.382,1.196,0.152L105.39,162.5c0.476,-0.275,0.641,-0.89,0.366,-1.366c-0.055,-0.095,-0.114,-0.177,-0.198,-0.243L96.619,153.7076873779297L94.256,141.2153778076172l-8.922,-7.874c-0.34,-0.289,-0.802,-0.369,-1.2,-0.139L57.945,148.3230743408203c-0.476,0.275,-0.641,0.89,-0.366,1.366ZM90.792,143.2153778076172l2.354,12.497L72.543,167.60768127441406l-2.354,-12.497L90.792,143.2153778076172Z" transform="matrix(1,0,0,1,0,0)"></path><path d="M90.085,114.08654022216797c-0.055,-0.095,-0.114,-0.177,-0.199,-0.243L80.947,106.6602554321289L78.585,94.16795349121094L69.659,86.30784606933594c-0.331,-0.294,-0.798,-0.382,-1.197,-0.152L42.274,101.27564239501953c-0.476,0.275,-0.641,0.89,-0.366,1.366c0.055,0.095,0.114,0.177,0.198,0.243L51.045,110.06794738769531L53.408,122.56025695800781l8.922,7.874c0.34,0.289,0.802,0.369,1.2,0.139L89.719,115.45256042480469c0.476,-0.275,0.641,-0.89,0.366,-1.366ZM56.872,120.56025695800781l-2.354,-12.497L75.121,96.16795349121094l2.354,12.497L56.872,120.56025695800781Z" transform="matrix(1,0,0,1,0,0)"></path><path d="M32.542,154.86415100097656c0.11,0,0.21,-0.01,0.31,-0.049L43.542,150.6644287109375L55.542,154.86415100097656L66.812,151.06407165527344c0.42,-0.14,0.73,-0.5,0.73,-0.96L67.542,119.86405944824219c0,-0.55,-0.45,-1,-1,-1c-0.11,0,-0.21,0.01,-0.31,0.05L55.542,123.0638198852539L43.542,118.86408233642578l-11.281,3.79c-0.42,0.15,-0.72,0.511,-0.72,0.97L31.542,153.8641815185547c0,0.55,0.45,1,1,1ZM43.542,122.86399841308594l12,4.21L55.542,150.86424255371094l-12,-4.21L43.542,122.86399841308594Z" transform="matrix(1,0,0,1,0,0)"></path><path d="M25.999,84.64161682128906c-0.055,0.095,-0.096,0.187,-0.112,0.293L24.136,96.26763153076172L14.499,104.5602035522461L12.155,116.22040557861328c-0.089,0.434,0.068,0.882,0.466,1.112L38.81,132.45260620117188c0.476,0.275,1.091,0.11,1.366,-0.366c0.055,-0.095,0.096,-0.187,0.111,-0.293L42.039,120.4605484008789L51.676,112.16797637939453l2.358,-11.664c0.08,-0.439,-0.081,-0.879,-0.48,-1.109L27.365,84.27557373046875c-0.476,-0.275,-1.091,-0.11,-1.366,0.366ZM48.212,110.16806030273438l-9.646,8.287L17.963,106.56011199951172l9.646,-8.287L48.212,110.16806030273438Z" transform="matrix(1,0,0,1,0,0)"></path><path d="M73.085,94.99156951904297c0.055,-0.095,0.096,-0.187,0.111,-0.293L74.947,83.36528778076172L84.585,75.07298278808594L86.929,63.412879943847656c0.089,-0.434,-0.068,-0.882,-0.467,-1.112L60.274,47.18067932128906c-0.476,-0.275,-1.091,-0.11,-1.366,0.366c-0.055,0.095,-0.096,0.187,-0.112,0.293L57.045,59.1729850769043L47.408,67.46528625488281l-2.358,11.664c-0.08,0.439,0.082,0.879,0.48,1.109L71.719,95.35759735107422c0.476,0.275,1.091,0.11,1.366,-0.366ZM50.872,69.46528625488281l9.646,-8.287L81.121,73.07298278808594l-9.646,8.287L50.872,69.46528625488281Z" transform="matrix(1,0,0,1,0,0)"></path><path d="M8.999,65.54676055908203c0.055,0.095,0.114,0.177,0.198,0.243L18.136,72.97330474853516L20.499,85.46533966064453L29.425,93.32536315917969c0.331,0.294,0.798,0.382,1.196,0.152L56.81,78.35755157470703c0.476,-0.275,0.641,-0.89,0.366,-1.366c-0.055,-0.095,-0.114,-0.177,-0.198,-0.243L48.039,69.56500244140625L45.676,57.07296371459961l-8.923,-7.874c-0.34,-0.289,-0.802,-0.368,-1.2,-0.139L9.365,64.18075561523438c-0.476,0.275,-0.641,0.89,-0.366,1.366ZM42.212,59.0728759765625l2.353,12.497L23.963,83.4654312133789l-2.354,-12.497L42.212,59.0728759765625Z" transform="matrix(1,0,0,1,0,0)"></path><path d="M66.542,24.76908302307129c-0.11,0,-0.21,0.01,-0.31,0.05L55.542,28.968820571899414L43.542,24.769084930419922L32.272,28.56917381286621c-0.42,0.14,-0.73,0.5,-0.73,0.96L31.542,59.76918029785156c0,0.55,0.45,1,1,1c0.11,0,0.21,-0.01,0.309,-0.05L43.542,56.56942367553711L55.542,60.76915740966797l11.28,-3.79c0.42,-0.15,0.721,-0.51,0.72,-0.97L67.542,25.769062042236328c0,-0.55,-0.45,-1,-1,-1ZM55.542,56.769248962402344l-12,-4.21L43.542,28.768997192382812l12,4.21L55.542,56.769248962402344Z" transform="matrix(1,0,0,1,0,0)"></path><path d="M81.121,70.72160339355469c0.11,0,0.21,-0.01,0.31,-0.05L92.121,66.52159881591797L104.121,70.72160339355469L115.391,66.92160034179688c0.42,-0.14,0.73,-0.5,0.73,-0.96L116.121,35.72159957885742c0,-0.55,-0.45,-1,-1,-1c-0.11,0,-0.21,0.01,-0.31,0.05L104.121,38.921600341796875L92.121,34.72159957885742l-11.28,3.79c-0.42,0.15,-0.72,0.51,-0.72,0.97L80.121,69.72160339355469c0,0.55,0.45,1,1,1ZM92.121,38.72159957885742l12,4.21L104.121,66.72160339355469l-12,-4.21L92.121,38.72159957885742Z" transform="matrix(1,0,0,1,0,0)"></path><path d="M74.578,0.49916917085647583c-0.055,0.095,-0.096,0.187,-0.112,0.293L72.715,12.125447273254395L63.078,20.41775131225586L60.734,32.077857971191406c-0.089,0.434,0.068,0.882,0.466,1.112L87.389,48.31005859375c0.476,0.275,1.091,0.11,1.366,-0.366c0.055,-0.095,0.096,-0.187,0.112,-0.293L90.618,36.317752838134766L100.255,28.025447845458984l2.358,-11.664c0.08,-0.439,-0.082,-0.879,-0.48,-1.109L75.944,0.13314133882522583c-0.476,-0.275,-1.091,-0.11,-1.366,0.366ZM96.791,26.025447845458984l-9.646,8.287L66.542,22.41775131225586l9.646,-8.287L96.791,26.025447845458984Z" transform="matrix(1,0,0,1,0,0)"></path><path d="M138.664,29.94403076171875c-0.055,-0.095,-0.114,-0.177,-0.198,-0.243L129.527,22.51775360107422L127.164,10.0254487991333L118.238,2.165337324142456c-0.331,-0.294,-0.798,-0.382,-1.196,-0.152L90.853,17.133140563964844c-0.476,0.275,-0.641,0.89,-0.366,1.366c0.055,0.095,0.114,0.177,0.198,0.243L99.624,25.925445556640625L101.987,38.41775131225586l8.922,7.874c0.34,0.289,0.802,0.369,1.2,0.139L138.298,31.31005859375c0.476,-0.275,0.641,-0.89,0.366,-1.366ZM105.451,36.41775131225586l-2.354,-12.497L123.7,12.0254487991333l2.354,12.497L105.451,36.41775131225586Z" transform="matrix(1,0,0,1,0,0)"></path><path d="M106.158,65.54659271240234c0.055,0.095,0.114,0.177,0.198,0.243L115.295,72.97286987304688L117.658,85.46517944335938L126.584,93.32528686523438c0.331,0.294,0.798,0.382,1.196,0.152L153.969,78.35748291015625c0.476,-0.275,0.641,-0.89,0.366,-1.366c-0.055,-0.095,-0.114,-0.177,-0.198,-0.243L145.198,69.56517791748047L142.835,57.072872161865234l-8.922,-7.874c-0.34,-0.289,-0.802,-0.369,-1.2,-0.139L106.524,64.1805648803711c-0.476,0.275,-0.641,0.89,-0.366,1.366ZM139.371,59.072872161865234l2.354,12.497L121.122,83.46517944335938l-2.354,-12.497L139.371,59.072872161865234Z" transform="matrix(1,0,0,1,0,0)"></path><path d="M163.701,24.768972396850586c-0.11,0,-0.21,0.01,-0.31,0.05L152.701,28.968708038330078L140.701,24.768972396850586L129.431,28.569059371948242c-0.42,0.14,-0.73,0.5,-0.73,0.96L128.701,59.769065856933594c0,0.55,0.45,1,1,1c0.11,0,0.21,-0.01,0.31,-0.05L140.701,56.56930923461914L152.701,60.769046783447266l11.28,-3.79c0.42,-0.15,0.72,-0.511,0.72,-0.97L164.701,25.76894760131836c0,-0.55,-0.45,-1,-1,-1ZM152.701,56.769134521484375l-12,-4.21L140.701,28.76888084411621l12,4.21L152.701,56.769134521484375Z" transform="matrix(1,0,0,1,0,0)"></path><path d="M170.244,94.99150848388672c0.055,-0.095,0.096,-0.187,0.112,-0.293L172.107,83.36549377441406L181.744,75.07292175292969L184.088,63.41272735595703c0.089,-0.434,-0.068,-0.882,-0.466,-1.112L157.433,47.18052291870117c-0.476,-0.275,-1.091,-0.11,-1.366,0.366c-0.055,0.095,-0.096,0.187,-0.111,0.293L154.204,59.172584533691406L144.567,67.46515655517578l-2.358,11.664c-0.08,0.439,0.081,0.879,0.48,1.109L168.878,95.35755920410156c0.476,0.275,1.091,0.11,1.366,-0.366ZM148.031,69.4650650024414l9.646,-8.287L178.28,73.07301330566406l-9.646,8.287L148.031,69.4650650024414Z" transform="matrix(1,0,0,1,0,0)"></path><path d="M123.158,84.64155578613281c-0.055,0.095,-0.096,0.187,-0.111,0.293L121.296,96.26783752441406L111.658,104.56014251708984L109.314,116.22025299072266c-0.089,0.434,0.068,0.882,0.467,1.112L135.969,132.45245361328125c0.476,0.275,1.091,0.11,1.366,-0.366c0.055,-0.095,0.096,-0.187,0.112,-0.293L139.198,120.46014404296875L148.835,112.16783905029297l2.358,-11.664c0.08,-0.439,-0.082,-0.879,-0.48,-1.109L124.524,84.2755355834961c-0.476,-0.275,-1.091,-0.11,-1.366,0.366ZM145.371,110.16783905029297l-9.646,8.287L115.122,106.56014251708984l9.646,-8.287L145.371,110.16783905029297Z" transform="matrix(1,0,0,1,0,0)"></path><path d="M187.244,114.08637237548828c-0.055,-0.095,-0.114,-0.177,-0.198,-0.243L178.107,106.65982818603516L175.744,94.16778564453125L166.818,86.30776977539062c-0.331,-0.294,-0.798,-0.382,-1.196,-0.152L139.433,101.27557373046875c-0.476,0.275,-0.641,0.89,-0.366,1.366c0.055,0.095,0.114,0.177,0.198,0.243L148.204,110.06812286376953L150.567,122.56016540527344l8.923,7.874c0.34,0.289,0.802,0.368,1.2,0.139L186.878,115.4523696899414c0.476,-0.275,0.641,-0.89,0.366,-1.366ZM154.031,120.56024932861328l-2.354,-12.497L172.28,96.16769409179688l2.354,12.497L154.031,120.56024932861328Z" transform="matrix(1,0,0,1,0,0)"></path><path d="M129.701,154.86404418945312c0.11,0,0.21,-0.01,0.31,-0.05L140.701,150.664306640625L152.701,154.86404418945312L163.971,151.06394958496094c0.42,-0.14,0.73,-0.5,0.73,-0.96L164.701,119.86394500732422c0,-0.55,-0.45,-1,-1,-1c-0.11,0,-0.21,0.01,-0.309,0.05L152.701,123.06370544433594L140.701,118.86396789550781l-11.28,3.79c-0.42,0.15,-0.721,0.51,-0.72,0.97L128.701,153.8640594482422c0,0.55,0.45,1,1,1ZM140.701,122.86388397216797l12,4.21L152.701,150.8641357421875l-12,-4.21L140.701,122.86388397216797Z" transform="matrix(1,0,0,1,0,0)"></path></g></symbol></defs><rect width="100%" height="100%" id="BgenPttrnRctLayer1" fill="url(#BgenPttrnLayer1)"></rect><rect width="100%" height="100%" id="BgenPttrnRctLayer2" fill="url(#BgenPttrnLayer2)"></rect></svg>